<?xml version="1.0" encoding="UTF-8"?>
<svg id="_レイヤー_1" data-name="レイヤー 1" xmlns="http://www.w3.org/2000/svg" viewBox="0 0 1000 200">
  <defs>
    <style>
      .cls-1 {
        fill: #fff;
      }

      .cls-2 {
        fill: #3d3abf;
      }
    </style>
  </defs>
  <g>
    <rect class="cls-2" x=".5" y="7.5" width="196.33" height="185" rx="11.5" ry="11.5"/>
    <path class="cls-2" d="M185.33,8c6.07,0,11,4.93,11,11v162c0,6.07-4.93,11-11,11H12c-6.07,0-11-4.93-11-11V19c0-6.07,4.93-11,11-11h173.33M185.33,7H12C5.37,7,0,12.37,0,19v162C0,187.63,5.37,193,12,193h173.33c6.63,0,12-5.37,12-12V19c0-6.63-5.37-12-12-12h0Z"/>
  </g>
  <g>
    <rect class="cls-1" x="20.5" y="22.17" width="40.33" height="156.33" rx="7.5" ry="7.5"/>
    <path d="M53.33,22.67c3.86,0,7,3.14,7,7v141.33c0,3.86-3.14,7-7,7h-25.33c-3.86,0-7-3.14-7-7V29.67c0-3.86,3.14-7,7-7h25.33M53.33,21.67h-25.33c-4.42,0-8,3.58-8,8v141.33c0,4.42,3.58,8,8,8h25.33c4.42,0,8-3.58,8-8V29.67c0-4.42-3.58-8-8-8h0Z"/>
  </g>
  <g>
    <rect class="cls-1" x="77.83" y="79.5" width="40.33" height="99" rx="7.5" ry="7.5"/>
    <path d="M110.67,80c3.86,0,7,3.14,7,7v84c0,3.86-3.14,7-7,7h-25.33c-3.86,0-7-3.14-7-7v-84c0-3.86,3.14-7,7-7h25.33M110.67,79h-25.33c-4.42,0-8,3.58-8,8v84c0,4.42,3.58,8,8,8h25.33c4.42,0,8-3.58,8-8v-84c0-4.42-3.58-8-8-8h0Z"/>
  </g>
  <g>
    <rect class="cls-1" x="135.17" y="22.17" width="40.33" height="156.33" rx="7.5" ry="7.5"/>
    <path d="M168,22.67c3.86,0,7,3.14,7,7v141.33c0,3.86-3.14,7-7,7h-25.33c-3.86,0-7-3.14-7-7V29.67c0-3.86,3.14-7,7-7h25.33M168,21.67h-25.33c-4.42,0-8,3.58-8,8v141.33c0,4.42,3.58,8,8,8h25.33c4.42,0,8-3.58,8-8V29.67c0-4.42-3.58-8-8-8h0Z"/>
  </g>
  <g>
    <path class="cls-1" d="M269.38,135.06c0,12.34-2.96,22.08-8.88,29.22-5.92,7.14-14.11,10.71-24.58,10.71s-18.71-2.6-25.74-7.79v-23.38c3.86,2.6,8.13,4.97,12.81,7.11,4.68,2.14,9.37,3.21,14.09,3.21,5.58,0,9.63-1.66,12.16-4.97,2.53-3.31,3.8-7.56,3.8-12.76,0-5.71-1.63-10.29-4.89-13.73-3.26-3.44-8.02-7.17-14.29-11.2-3.78-2.34-7.4-5.23-10.88-8.67-3.47-3.44-6.31-7.79-8.49-13.05-2.19-5.26-3.28-11.85-3.28-19.77,0-11.82,2.77-21.1,8.3-27.86,5.53-6.75,12.93-10.13,22.2-10.13,4.8,0,9.37.78,13.71,2.34,4.33,1.56,8.6,3.77,12.81,6.62l-5.28,20.07c-3.86-2.47-7.53-4.41-11-5.84-3.48-1.43-7.06-2.14-10.75-2.14-4.46,0-7.85,1.49-10.17,4.48-2.32,2.99-3.48,6.95-3.48,11.88,0,3.77.64,6.98,1.93,9.64,1.29,2.66,3.28,5.1,5.98,7.31,2.7,2.21,6.2,4.74,10.49,7.6,4.98,3.25,9.2,6.66,12.68,10.23,3.48,3.57,6.13,7.79,7.98,12.66,1.84,4.87,2.77,10.94,2.77,18.21Z"/>
    <path class="cls-1" d="M343.12,120.07c0,17.53-3,31.07-9.01,40.62-6.01,9.54-14.16,14.32-24.45,14.32-6.35,0-12.01-2.14-16.99-6.43-4.98-4.29-8.88-10.52-11.71-18.7-2.83-8.18-4.25-18.12-4.25-29.81,0-17.53,2.98-31,8.94-40.42,5.96-9.41,14.09-14.12,24.39-14.12,6.44,0,12.14,2.11,17.12,6.33,4.98,4.22,8.88,10.39,11.71,18.51,2.83,8.12,4.25,18.02,4.25,29.71ZM293.32,120.07c0,11.17,1.31,19.81,3.93,25.91,2.62,6.11,6.84,9.16,12.68,9.16s9.95-3.05,12.61-9.16c2.66-6.1,3.99-14.74,3.99-25.91s-1.33-19.74-3.99-25.71c-2.66-5.97-6.91-8.96-12.74-8.96s-10.04,2.99-12.61,8.96c-2.57,5.97-3.86,14.55-3.86,25.71Z"/>
    <path class="cls-1" d="M371.7,173.05h-16.22V25h16.22v148.05Z"/>
    <path class="cls-1" d="M396.15,26.75c2.4,0,4.51.94,6.31,2.82,1.8,1.88,2.7,5.23,2.7,10.03s-.9,8.18-2.7,10.13c-1.8,1.95-3.9,2.92-6.31,2.92s-4.61-.97-6.37-2.92c-1.76-1.95-2.64-5.32-2.64-10.13s.88-8.15,2.64-10.03c1.76-1.88,3.88-2.82,6.37-2.82ZM404.26,67.47v105.58h-16.22v-105.58h16.22Z"/>
    <path class="cls-1" d="M447.63,155.32c1.97,0,3.93-.29,5.86-.88,1.93-.58,3.71-1.27,5.34-2.05v18.31c-1.72,1.3-3.95,2.34-6.69,3.12-2.75.78-5.62,1.17-8.62,1.17-4.03,0-7.66-.97-10.88-2.92-3.22-1.95-5.77-5.39-7.66-10.32-1.89-4.93-2.83-11.88-2.83-20.84v-54.93h-9.4v-10.71l10.3-8.57,5.15-22.4h10.17v23.18h19.82v18.51h-19.82v54.74c0,4.94.88,8.6,2.64,11.01,1.76,2.4,3.97,3.6,6.63,3.6Z"/>
    <path class="cls-1" d="M530.77,120.07c0,17.53-3,31.07-9.01,40.62-6.01,9.54-14.16,14.32-24.45,14.32-6.35,0-12.01-2.14-16.99-6.43-4.98-4.29-8.88-10.52-11.71-18.7-2.83-8.18-4.25-18.12-4.25-29.81,0-17.53,2.98-31,8.94-40.42,5.96-9.41,14.09-14.12,24.39-14.12,6.43,0,12.14,2.11,17.12,6.33,4.97,4.22,8.88,10.39,11.71,18.51,2.83,8.12,4.25,18.02,4.25,29.71ZM480.96,120.07c0,11.17,1.31,19.81,3.92,25.91,2.62,6.11,6.84,9.16,12.68,9.16s9.95-3.05,12.61-9.16c2.66-6.1,3.99-14.74,3.99-25.91s-1.33-19.74-3.99-25.71c-2.66-5.97-6.91-8.96-12.74-8.96s-10.04,2.99-12.61,8.96c-2.57,5.97-3.86,14.55-3.86,25.71Z"/>
    <path class="cls-1" d="M580.45,65.52c7.81,0,13.92,3.05,18.34,9.16,4.42,6.11,6.63,15.97,6.63,29.61v68.77h-16.22v-63.9c0-7.92-1.03-13.86-3.09-17.82-2.06-3.96-5.32-5.94-9.78-5.94-6.52,0-10.98,3.12-13.38,9.35-2.4,6.23-3.6,15.13-3.6,26.69v51.62h-16.22v-105.58h12.48l2.32,13.83h.9c2.23-5.45,5.3-9.45,9.2-11.98,3.9-2.53,8.04-3.8,12.42-3.8Z"/>
    <path class="cls-1" d="M679.67,173.05l-8.37-36.82h-34.62l-8.24,36.82h-17.5l33.72-139.68h18.79l33.72,139.68h-17.5ZM667.06,114.81l-7.98-35.84c-.34-1.69-.86-4.12-1.54-7.3-.69-3.18-1.33-6.43-1.93-9.74-.6-3.31-1.12-6.07-1.54-8.28-.43,2.73-.97,5.78-1.61,9.16-.64,3.38-1.24,6.56-1.8,9.55-.56,2.99-1.01,5.2-1.35,6.62l-8.11,35.84h25.87Z"/>
    <path class="cls-1" d="M726.39,175c-8.07,0-14.61-4.58-19.63-13.73-5.02-9.16-7.53-22.76-7.53-40.81s2.53-31.88,7.59-41.1c5.06-9.22,11.71-13.83,19.95-13.83,5.15,0,9.37,1.49,12.68,4.48,3.3,2.99,5.94,6.62,7.92,10.91h.77c-.26-1.82-.51-4.58-.77-8.28-.26-3.7-.39-7.24-.39-10.62V25h16.22v148.05h-12.61l-2.96-13.83h-.64c-1.97,4.42-4.59,8.15-7.85,11.2-3.26,3.05-7.51,4.58-12.74,4.58ZM731.28,155.13c6,0,10.23-2.6,12.68-7.79,2.45-5.19,3.71-13.05,3.8-23.57v-3.12c0-11.3-1.18-19.97-3.54-26.01-2.36-6.04-6.76-9.06-13.19-9.06-4.98,0-8.77,3.09-11.39,9.25-2.62,6.17-3.93,14.84-3.93,26.01s1.33,19.68,3.99,25.52c2.66,5.84,6.52,8.77,11.58,8.77Z"/>
    <path class="cls-1" d="M859.47,65.52c7.89,0,13.84,3.05,17.83,9.16,3.99,6.11,5.98,15.97,5.98,29.61v68.77h-16.22v-64.09c0-15.71-3.95-23.57-11.84-23.57-5.66,0-9.7,2.79-12.1,8.38-2.4,5.59-3.6,13.7-3.6,24.35v54.93h-16.22v-64.09c0-15.71-3.99-23.57-11.97-23.57-5.92,0-10,3.12-12.23,9.35-2.23,6.23-3.35,15.13-3.35,26.69v51.62h-16.22v-105.58h12.48l2.32,13.83h.9c2.14-5.45,5.06-9.45,8.75-11.98,3.69-2.53,7.55-3.8,11.58-3.8,5.23,0,9.63,1.3,13.19,3.9,3.56,2.6,6.28,6.75,8.17,12.47h1.29c2.14-5.71,5.15-9.87,9.01-12.47,3.86-2.6,7.94-3.9,12.23-3.9Z"/>
    <path class="cls-1" d="M907.34,26.75c2.4,0,4.5.94,6.31,2.82,1.8,1.88,2.7,5.23,2.7,10.03s-.9,8.18-2.7,10.13c-1.8,1.95-3.91,2.92-6.31,2.92s-4.61-.97-6.37-2.92c-1.76-1.95-2.64-5.32-2.64-10.13s.88-8.15,2.64-10.03c1.76-1.88,3.88-2.82,6.37-2.82ZM915.45,67.47v105.58h-16.22v-105.58h16.22Z"/>
    <path class="cls-1" d="M969.12,65.52c7.81,0,13.92,3.05,18.34,9.16,4.42,6.11,6.63,15.97,6.63,29.61v68.77h-16.22v-63.9c0-7.92-1.03-13.86-3.09-17.82-2.06-3.96-5.32-5.94-9.78-5.94-6.52,0-10.98,3.12-13.38,9.35-2.4,6.23-3.6,15.13-3.6,26.69v51.62h-16.22v-105.58h12.48l2.32,13.83h.9c2.23-5.45,5.3-9.45,9.2-11.98,3.9-2.53,8.04-3.8,12.42-3.8Z"/>
  </g>
</svg>